<?xml version="1.0" standalone="no"?>
<!DOCTYPE svg PUBLIC "-//W3C//DTD SVG 20010904//EN"
 "http://www.w3.org/TR/2001/REC-SVG-20010904/DTD/svg10.dtd">
<svg version="1.0" xmlns="http://www.w3.org/2000/svg"
 width="1000.000000pt" height="1000.000000pt" viewBox="0 0 1000.000000 1000.000000"
 preserveAspectRatio="xMidYMid meet">

<g transform="translate(0.000000,1000.000000) scale(0.100000,-0.100000)"
fill="#000000" stroke="none">
<path d="M2730 9099 c-417 -31 -826 -196 -1185 -478 -103 -80 -340 -322 -425
-431 -330 -429 -556 -970 -649 -1555 -38 -245 -46 -346 -45 -615 0 -280 9
-377 59 -625 130 -648 499 -1318 1089 -1980 145 -163 464 -483 665 -668 220
-202 711 -605 887 -727 12 -8 75 -54 140 -101 468 -339 1068 -709 1572 -969
142 -73 178 -73 319 -2 494 251 1163 665 1641 1016 937 687 1684 1423 2143
2111 535 803 723 1571 603 2465 -133 998 -651 1859 -1365 2269 -498 287 -1029
365 -1576 231 -328 -80 -665 -248 -981 -489 -121 -92 -371 -315 -408 -364 -11
-14 -55 -65 -99 -113 -44 -49 -88 -100 -98 -114 l-17 -24 -17 24 c-44 63 -235
270 -336 364 -503 470 -1054 733 -1622 776 -77 5 -151 9 -165 9 -14 -1 -72 -5
-130 -10z m486 -493 c317 -67 631 -224 934 -467 213 -171 464 -442 621 -672
34 -48 77 -99 97 -112 57 -37 122 -50 180 -36 88 22 119 53 272 275 8 11 47
60 87 107 359 428 777 726 1210 863 212 66 474 92 679 66 620 -77 1162 -501
1489 -1165 316 -641 412 -1419 256 -2061 -117 -478 -358 -938 -746 -1424 -309
-387 -717 -793 -1211 -1206 -122 -102 -447 -355 -548 -427 -202 -144 -481
-334 -631 -429 -170 -108 -532 -328 -540 -328 -3 0 -42 -22 -87 -48 -46 -27
-127 -72 -180 -101 l-96 -51 -119 63 c-652 349 -1398 849 -1953 1311 -1320
1096 -1984 2107 -2038 3099 -39 723 174 1476 563 1996 319 426 705 674 1182
761 154 28 408 22 579 -14z"/>
</g>
</svg>
