<svg width="42" height="41" viewBox="0 0 42 41" fill="none" xmlns="http://www.w3.org/2000/svg">
<g filter="url(#filter0_d_2274_2394)">
<path d="M16.0706 32.8889C17.3822 32.8889 18.4456 31.8536 18.4456 30.5764C18.4456 29.2993 17.3822 28.2639 16.0706 28.2639C14.7589 28.2639 13.6956 29.2993 13.6956 30.5764C13.6956 31.8536 14.7589 32.8889 16.0706 32.8889Z" fill="white"/>
<path d="M30.5 32.8889C31.8117 32.8889 32.875 31.8536 32.875 30.5764C32.875 29.2993 31.8117 28.2639 30.5 28.2639C29.1883 28.2639 28.125 29.2993 28.125 30.5764C28.125 31.8536 29.1883 32.8889 30.5 32.8889Z" fill="white"/>
<path d="M36.9179 5.51914C36.8197 5.40124 36.6958 5.30599 36.5553 5.24024C36.4148 5.17449 36.261 5.13987 36.1051 5.13886H14.1284L14.8145 7.19442H34.7223L31.904 19.5278H16.0707L11.2468 4.65581C11.1946 4.498 11.104 4.35483 10.9827 4.2385C10.8614 4.12217 10.7129 4.03614 10.5501 3.98775L6.22232 2.69275C6.08925 2.65293 5.94942 2.63903 5.81083 2.65183C5.67224 2.66463 5.53759 2.70388 5.41458 2.76735C5.16615 2.89552 4.98018 3.11454 4.8976 3.37622C4.81501 3.6379 4.84257 3.92081 4.97421 4.16271C5.10585 4.4046 5.33079 4.58567 5.59954 4.66608L9.38899 5.79664L14.234 20.6994L12.5029 22.0766L12.3657 22.2103C11.9375 22.6907 11.6947 23.3016 11.6793 23.9375C11.6639 24.5735 11.8768 25.1948 12.2812 25.6944C12.5689 26.0351 12.9345 26.3055 13.3487 26.4839C13.763 26.6624 14.2143 26.744 14.6668 26.7222H32.284C32.5639 26.7222 32.8324 26.6139 33.0304 26.4212C33.2283 26.2284 33.3395 25.967 33.3395 25.6944C33.3395 25.4218 33.2283 25.1604 33.0304 24.9677C32.8324 24.7749 32.5639 24.6666 32.284 24.6666H14.4979C14.3763 24.6626 14.2579 24.6281 14.154 24.5665C14.0502 24.5049 13.9644 24.4182 13.905 24.3149C13.8455 24.2116 13.8145 24.0951 13.8148 23.9766C13.8151 23.8582 13.8468 23.7419 13.9068 23.6389L16.4507 21.5833H32.7484C32.9924 21.5891 33.231 21.5124 33.4234 21.3662C33.6159 21.2201 33.7504 21.0135 33.804 20.7816L37.1501 6.39275C37.1822 6.23953 37.178 6.08119 37.1377 5.9298C37.0975 5.77841 37.0223 5.63796 36.9179 5.51914Z" fill="white"/>
</g>
<defs>
<filter id="filter0_d_2274_2394" x="-2" y="0" width="46" height="45" filterUnits="userSpaceOnUse" color-interpolation-filters="sRGB">
<feFlood flood-opacity="0" result="BackgroundImageFix"/>
<feColorMatrix in="SourceAlpha" type="matrix" values="0 0 0 0 0 0 0 0 0 0 0 0 0 0 0 0 0 0 127 0" result="hardAlpha"/>
<feOffset dy="4"/>
<feGaussianBlur stdDeviation="2"/>
<feComposite in2="hardAlpha" operator="out"/>
<feColorMatrix type="matrix" values="0 0 0 0 0 0 0 0 0 0 0 0 0 0 0 0 0 0 0.25 0"/>
<feBlend mode="normal" in2="BackgroundImageFix" result="effect1_dropShadow_2274_2394"/>
<feBlend mode="normal" in="SourceGraphic" in2="effect1_dropShadow_2274_2394" result="shape"/>
</filter>
</defs>
</svg>
